<svg id="Calque_1" data-name="Calque 1" xmlns="http://www.w3.org/2000/svg" xmlns:xlink="http://www.w3.org/1999/xlink" viewBox="0 0 509.92 312.22"><defs><style>.cls-1,.cls-2,.cls-7{opacity:0.6;}.cls-1{fill:url(#Dégradé_sans_nom_42);}.cls-2{fill:url(#Dégradé_sans_nom_42-2);}.cls-3,.cls-4,.cls-5{opacity:0.3;}.cls-3{fill:url(#Dégradé_sans_nom_62);}.cls-4{fill:url(#Dégradé_sans_nom_62-2);}.cls-5{fill:url(#Dégradé_sans_nom_63);}.cls-6{fill:url(#Dégradé_sans_nom_17);}.cls-7{fill:url(#Dégradé_sans_nom_64);}.cls-8{fill:url(#Dégradé_sans_nom_17-2);}.cls-9{fill:url(#Dégradé_sans_nom_3);}</style><linearGradient id="Dégradé_sans_nom_42" x1="147.06" y1="432.95" x2="414.6" y2="432.95" gradientTransform="translate(-34.09 -299.18)" gradientUnits="userSpaceOnUse"><stop offset="0" stop-color="#0089a2"/><stop offset="0.5" stop-color="#324093"/><stop offset="1" stop-color="#d9effd"/></linearGradient><linearGradient id="Dégradé_sans_nom_42-2" x1="157.39" y1="432.95" x2="404.29" y2="432.95" gradientTransform="translate(-16.42)" xlink:href="#Dégradé_sans_nom_42"/><linearGradient id="Dégradé_sans_nom_62" x1="216.17" y1="471.75" x2="404.09" y2="471.75" gradientTransform="matrix(-1, 0, 0, 1, 545.04, 0)" gradientUnits="userSpaceOnUse"><stop offset="0" stop-color="#fff"/><stop offset="0.51" stop-color="#0073aa"/><stop offset="1" stop-color="#1b1740"/></linearGradient><linearGradient id="Dégradé_sans_nom_62-2" x1="157.38" y1="403.71" x2="370.09" y2="403.71" xlink:href="#Dégradé_sans_nom_62"/><linearGradient id="Dégradé_sans_nom_63" x1="171.84" y1="442.63" x2="394.79" y2="442.63" gradientTransform="matrix(-1, 0, 0, 1, 545.04, 0)" gradientUnits="userSpaceOnUse"><stop offset="0" stop-color="#324093"/><stop offset="0.47" stop-color="#009c7f"/><stop offset="1" stop-color="#1b1740"/></linearGradient><linearGradient id="Dégradé_sans_nom_17" x1="380.42" y1="362.04" x2="382.87" y2="362.04" gradientTransform="matrix(-1, 0, 0, 1, 545.25, 0)" gradientUnits="userSpaceOnUse"><stop offset="0.26" stop-color="#009c7f"/><stop offset="0.85" stop-color="#324093"/><stop offset="1" stop-color="#1b1740"/></linearGradient><linearGradient id="Dégradé_sans_nom_64" x1="53.43" y1="455.29" x2="563.35" y2="455.29" gradientTransform="translate(-35.76)" gradientUnits="userSpaceOnUse"><stop offset="0" stop-color="#0089a2"/><stop offset="0.74" stop-color="#324093"/><stop offset="1" stop-color="#d9effd"/></linearGradient><linearGradient id="Dégradé_sans_nom_17-2" x1="395.9" y1="387.12" x2="395.9" y2="387.12" xlink:href="#Dégradé_sans_nom_17"/><linearGradient id="Dégradé_sans_nom_3" x1="390.95" y1="375.53" x2="390.95" y2="375.53" gradientTransform="matrix(-1, 0, 0, 1, 545.25, 0)" gradientUnits="userSpaceOnUse"><stop offset="0" stop-color="#b3bf10"/><stop offset="0.02" stop-color="#a3bd22"/><stop offset="0.07" stop-color="#84ba44"/><stop offset="0.11" stop-color="#6cb75f"/><stop offset="0.16" stop-color="#5bb572"/><stop offset="0.21" stop-color="#51b47d"/><stop offset="0.26" stop-color="#4eb481"/><stop offset="0.84" stop-color="#2d52a0"/><stop offset="1" stop-color="#2a2b6a"/></linearGradient></defs><title>logo2</title><circle class="cls-1" cx="246.75" cy="133.77" r="133.77"/><path class="cls-2" d="M387.87,433A123.46,123.46,0,0,1,157.11,494c-.58-1-1.14-2-1.69-3.07q-1.18-2.22-2.28-4.48l-.64-1.35q-1.58-3.4-3-6.9c-.36-.94-.72-1.88-1.07-2.82-.51-1.38-1-2.78-1.45-4.18-.23-.71-.45-1.41-.67-2.12-.11-.36-.21-.71-.32-1.06s-.25-.86-.37-1.29c-.28-1-.54-2-.8-2.95-.19-.74-.37-1.48-.55-2.22s-.35-1.49-.51-2.24c-.32-1.5-.62-3-.89-4.53-.18-1-.35-2-.51-3.05-.23-1.53-.44-3.08-.62-4.63-.14-1.29-.27-2.59-.38-3.89l-.15-2c0-.66-.08-1.31-.11-2s0-1.05-.07-1.58,0-1.06-.05-1.58l0-1.59c0-.54,0-1.07,0-1.6s0-.94,0-1.42a0,0,0,0,1,0,0,0,0,0,0,1,0,0,2,2,0,0,1,0-.35c0-.21,0-.42,0-.62s0-.51,0-.76c0,0,0,0,0,0s0,0,0,0,0,0,0,0a.2.2,0,0,1,0-.11c0-.45,0-.9.05-1.35,0,0,0,0,0,0a0,0,0,0,1,0,0c0-1.06.09-2.11.16-3.16s.15-2.09.24-3.13c.07-.78.15-1.56.23-2.34a0,0,0,0,1,0-.05c0-.37.08-.74.13-1.11s.09-.78.14-1.16c.13-1,.28-2.05.43-3.07a.19.19,0,0,1,0-.08c0-.35.1-.7.17-1a3.21,3.21,0,0,1,.07-.43c.08-.5.17-1,.26-1.49a0,0,0,0,1,0,0c.07-.43.15-.85.23-1.27a2,2,0,0,1,.05-.24l.06-.3s0-.05,0-.07a123.59,123.59,0,0,1,151.91-95.85h0c.46.11.92.24,1.38.37l1.41.39,1,.29,2.11.64,1.45.46c1,.31,1.91.64,2.86,1l.38.13,1.44.52q2.61,1,5.15,2l.06,0c.64.27,1.29.55,1.93.84l1.91.86.37.17c.8.37,1.6.76,2.4,1.15l0,0h0l.15.08,1.34.68.19.09,1.18.61,1.12.6.05,0,.1.06.81.45c.49.26,1,.54,1.48.82l.26.15.06,0c.86.49,1.71,1,2.56,1.51l.82.5,1.64,1c.43.28.86.55,1.29.85h0l1,.68.14.1c.78.53,1.55,1.06,2.32,1.61l.19.14c1.21.86,2.41,1.74,3.58,2.64.29.21.58.44.87.67l.3.24q1.17.92,2.31,1.86l.39.32,1.47,1.24c.61.52,1.21,1.05,1.81,1.59l.81.73c.37.32.73.66,1.09,1l1.08,1c.2.18.4.38.6.57l1,1,.4.4.09.09.6.6.44.45.91.95.08.08,0,0c.59.62,1.17,1.24,1.74,1.87a123.91,123.91,0,0,1,20.1,29.62q1.63,3.38,3.07,6.86h0A123.25,123.25,0,0,1,387.87,433Z" transform="translate(-17.66 -299.18)"/><path class="cls-3" d="M150.13,387.11c-.62-.12-1.59,2.41-2,3.54s-.65,1.9-1,3c-.74,2.6-1.33,4.76-1.51,5.39-.77,2.72-1.37,4.59-1.47,5-5.14,21.41-2.55,43.37-2.55,43.37A123.5,123.5,0,0,0,205,541.32,123.15,123.15,0,0,0,273.92,556a119.78,119.78,0,0,0,33-7.19,126.73,126.73,0,0,0,18.91-9.45c.31-.19.8-.55,1.78-1.14s1.33-.74,1.3-.85-1.32.14-3.12.21a23.6,23.6,0,0,1-2.65-.1c-8.66-.76-21.08-6.42-21.08-6.42-8.94-4.07-13.41-6.1-16.65-7.87a229.47,229.47,0,0,1-37.78-25.71,333.58,333.58,0,0,1-31.88-30.94L207.16,457c-6.86-7.67-7.53-8.43-8.51-9.53-4.49-5.06-8.37-9.5-10.05-11.42-.56-.64-1.63-1.86-3-3.42-1.82-2.09-4-4.62-7.72-8.9,0,0-3.38-3.9-10.57-12.28-.76-.88-1.26-1.46-1.94-2.27s-1.61-1.92-3.43-4.1l-.91-1.08c-.8-.94-1.51-1.73-2-2.25-.73-.82-.88-1-1.3-1.47-.23-.26-.47-.55-1-1.17-1-1.28-1.52-1.92-1.95-2.52-.69-1-1.18-1.79-1.46-2.27s-.76-1.32-1.28-2.46a32.07,32.07,0,0,1-1.54-3.75C150.39,387.45,150.33,387.14,150.13,387.11Z" transform="translate(-17.66 -299.18)"/><path class="cls-4" d="M175,347.66c2.12,2.67,6.66,6,13.61,11.56,9.29,7.44,6.16,5.52,15.65,13,4.61,3.64,10.59,8.22,17.72,13.36,21.43,14,39.92,22.55,55.27,29.67,11.44,5.31,17.17,8,24.06,10.82l1.85.76.06,0,1,.39L306,428l2.57,1,.81.32,1.55.6,1.59.61,1,.39,1.28.5,1.22.48,1.2.47,1.68.67.5.21,1,.44.83.35,1.21.54,1,.48h0l1,.49.23.11.27.13q1,.48,1.95,1l.78.43.33.19,1.43.82,1.84,1.14a100.39,100.39,0,0,1,17.42,14,103.77,103.77,0,0,1,12.81,15.87,72.05,72.05,0,0,1,7.08,12.56c1.61,3.8,2.49,5.9,2.7,9,.08,1.16.06,2.36.11,3.22.58-1,1.14-2,1.69-3.06h0a123.86,123.86,0,0,0,12.21-81.58,109.45,109.45,0,0,0-25.58-48.77c-17.24-18.91-37-26.9-48-31.21-10.56-4.15-20.06-6.43-28.78-8.52-11.84-2.84-21.06-4.25-27.42-5.2-2.82-.42-8.51-1.21-15.85-1.82-2.36-.2-4.46-.37-6.37-.51q-1,.24-1.92.51c-.63.17-1.27.35-1.9.54l-1,.29-.27.08c-.94.29-1.88.58-2.8.89l-1.22.41-.27.09-1.25.44-1.44.52q-2.61,1-5.15,2l-1.37.59c-.85.37-1.69.74-2.53,1.14l-.37.17c-.8.37-1.6.76-2.4,1.15l0,0h0c-.57.27-1.12.56-1.68.85l-1.18.61-1.12.6-.05,0-.17.09-2.22,1.24-.26.15c-.59.33-1.18.68-1.77,1l-.44.26-1.23.76-1.64,1-2.34,1.53-.14.1c-.78.53-1.55,1.06-2.32,1.61l-1.38,1-.15.11-.06,0-1.52,1.14c-.52.39-1,.78-1.53,1.18s-1,.79-1.51,1.2-1,.8-1.49,1.22l-1.47,1.24c-.61.52-1.21,1.05-1.81,1.59l-.56.49c-.65.59-1.29,1.18-1.92,1.78l0,0-1.05,1-1,1-.4.4-.69.69C175.86,346.73,175.41,347.19,175,347.66Z" transform="translate(-17.66 -299.18)"/><path class="cls-5" d="M151.79,383.27a17,17,0,0,0-1.1,2.26c-.12.32-.24.63-.34.93l-.09.66a38.64,38.64,0,0,0,3.1,7.1,28.54,28.54,0,0,0,1.69,2.68l2.66,3.3c.76.86,2.76,3.09,3.54,4l1.28,1.53c.68.83,1.77,2.15,3.68,4.38,4.91,5.77,18.49,21.49,24.07,27.82,26.33,29.94,39.56,45,59,61.59,0,0,26.57,22.59,62.14,35.16A43.7,43.7,0,0,0,325,537.6h0a25.24,25.24,0,0,0,3.87-.21c.56-.08,1.11-.18,1.68-.31h0a123.91,123.91,0,0,0,40.93-43c.58-1,1.14-2,1.69-3.06v0c-.31-3.76-1.92-7.86-4.18-12.26a101.7,101.7,0,0,0-27.79-33.52,96.27,96.27,0,0,0-16.17-9.37l-.27-.13-.23-.11c-5.63-2.57-11.09-4.51-16.86-6.74,0,0-1.64-.7-4.53-2l-.06,0-1.85-.76c-6.89-2.85-12.62-5.51-24.06-10.82-15.35-7.12-33.84-15.69-55.27-29.67-7.13-5.14-13.11-9.72-17.72-13.36-9.49-7.47-6.36-5.55-15.65-13-4.59-3.68-8.13-6.37-10.61-8.55-.38-.34-.74-.66-1.07-1-.17-.15-.33-.31-.48-.46-.38-.37-.71-.72-1-1.06a6.47,6.47,0,0,1-.43-.51h0l-.07.09,0,0a11.79,11.79,0,0,1-1.74,1.87,122.47,122.47,0,0,0-11.73,15c-2.06,3.84-3.57,6.64-4.54,8.44-1.16,2.14-2.11,3.89-3.31,6.4C152.77,381.05,152.18,382.37,151.79,383.27Z" transform="translate(-17.66 -299.18)"/><path class="cls-6" d="M164.83,358.61l-2.45,6.85" transform="translate(-17.66 -299.18)"/><path class="cls-7" d="M525.26,309.55c-13.49-22.6-87.69-5.72-168,26.29q-5.73,2.27-11.5,4.66l.54.4,1.6,1.21c.42.32.84.64,1.25,1,0,0,0,0,0,0l1,.79.14.12c.76.61,1.5,1.23,2.25,1.86l.18.16.57.49c.4.33.8.67,1.18,1l1.71,1.54.83.77.29.28c.75.7,1.49,1.4,2.22,2.12l.37.37,1.41,1.41c.58.59,1.15,1.19,1.72,1.8l.16.16c3.93-1.17,7.77-2.25,11.49-3.23,30.86-8.14,54.38-9.43,60.4.66,6.17,10.33-5.82,33-29.86,59.52q-4.23,4.68-9,9.5c-22.4,22.87-52.74,47.76-87.47,69.79h0a485.38,485.38,0,0,1-68.49,36.36c-14.8,6.33-31.33,12.42-48,17.62h0q-6.15,1.95-12.26,3.7c-44.85,12.83-87.37,18.12-94.87,3.59-6.94-13.43,16.65-42.51,52.33-73.22,2.95-2.55,6-5.11,9.12-7.67h0c-.09-.38-.15-.74-.23-1.1s-.19-.91-.28-1.37c-.2-1-.39-2.08-.57-3.14-.14-.78-.26-1.56-.38-2.35s-.24-1.58-.34-2.37c-.2-1.59-.38-3.18-.53-4.78-.1-1.08-.19-2.14-.27-3.22a2.45,2.45,0,0,1,0-.27c-3.36,2.49-6.7,5-10,7.51C62,516.3,7,574.82,19.41,598.79c14.27,27.6,115.93,5.69,197.78-25.35q7.63-2.91,15-5.9c3.89-1.56,7.71-3.16,11.45-4.76,55-23.56,107-55.33,151.06-88.62,4.28-3.25,8.49-6.49,12.62-9.76C488.62,400.29,539.26,333,525.26,309.55Z" transform="translate(-17.66 -299.18)"/><path class="cls-8" d="M149.35,387.12" transform="translate(-17.66 -299.18)"/><path class="cls-9" d="M154.29,375.53" transform="translate(-17.66 -299.18)"/></svg>