<?xml version="1.0"?>
<svg xmlns="http://www.w3.org/2000/svg" height="512px" viewBox="0 -14 445.05139 445" width="512px"><path d="m121.601562 291.226562 166.398438 124.800782v-416.0000002l-166.398438 124.7968752c-2.769531 2.078125-6.140624 3.203125-9.601562 3.203125h-112v160h112c3.460938 0 6.832031 1.121094 9.601562 3.199218zm0 0" fill="#FFFFFF"/><path d="m406.625 208.027344 33.933594-33.9375c6.066406-6.277344 5.976562-16.257813-.195313-22.429688s-16.148437-6.257812-22.425781-.195312l-33.9375 33.9375-33.9375-33.9375c-6.277344-6.0625-16.253906-5.976563-22.425781.195312s-6.261719 16.152344-.195313 22.429688l33.933594 33.9375-33.933594 33.933594c-4.160156 4.019531-5.828125 9.96875-4.363281 15.5625s5.832031 9.960937 11.425781 11.425781c5.59375 1.464843 11.542969-.203125 15.558594-4.363281l33.9375-33.9375 33.9375 33.9375c6.277344 6.0625 16.253906 5.976562 22.425781-.195313s6.261719-16.152344.195313-22.429687zm0 0" fill="#FFFFFF"/></svg>
