<?xml version="1.0"?>
<svg xmlns="http://www.w3.org/2000/svg" height="512px" viewBox="0 -15 447.99783 447" width="512px"><path d="m121.601562 291.699219 166.398438 124.800781v-416l-166.398438 124.800781c-2.769531 2.074219-6.140624 3.199219-9.601562 3.199219h-112v160h112c3.460938 0 6.832031 1.121094 9.601562 3.199219zm0 0" fill="#FFFFFF"/><path d="m389.824219 326.324219c-6.46875-.003907-12.304688-3.902344-14.777344-9.878907-2.476563-5.976562-1.109375-12.859374 3.464844-17.433593 49.992187-49.988281 49.992187-131.039063 0-181.023438-4.160157-4.019531-5.828125-9.96875-4.363281-15.5625 1.464843-5.59375 5.832031-9.960937 11.425781-11.425781 5.597656-1.464844 11.542969.203125 15.5625 4.363281 62.480469 62.484375 62.480469 163.789063 0 226.273438-3 3-7.070313 4.683593-11.3125 4.6875zm0 0" fill="#FFFFFF"/><path d="m344.574219 281.058594c-6.46875 0-12.300781-3.898438-14.777344-9.878906-2.476563-5.976563-1.105469-12.855469 3.46875-17.433594 24.984375-24.992188 24.984375-65.503906 0-90.496094-6.066406-6.277344-5.976563-16.257812.191406-22.429688 6.171875-6.171874 16.152344-6.257812 22.429688-.195312 37.476562 37.488281 37.476562 98.257812 0 135.746094-3 3-7.066407 4.6875-11.3125 4.6875zm0 0" fill="#FFFFFF"/></svg>
